<svg width="32" height="32" viewBox="0 0 32 32" fill="none" xmlns="http://www.w3.org/2000/svg">
<path d="M16 15.3332C15.116 15.3332 14.2681 14.982 13.643 14.3569C13.0179 13.7317 12.6667 12.8839 12.6667 11.9998C12.6667 11.1158 13.0179 10.2679 13.643 9.64282C14.2681 9.01769 15.116 8.6665 16 8.6665C16.8841 8.6665 17.7319 9.01769 18.357 9.64282C18.9822 10.2679 19.3334 11.1158 19.3334 11.9998C19.3334 12.4376 19.2471 12.871 19.0796 13.2755C18.9121 13.6799 18.6666 14.0473 18.357 14.3569C18.0475 14.6664 17.68 14.9119 17.2756 15.0794C16.8712 15.247 16.4378 15.3332 16 15.3332ZM16 2.6665C13.5247 2.6665 11.1507 3.64983 9.40036 5.40017C7.65002 7.15051 6.66669 9.52448 6.66669 11.9998C6.66669 18.9998 16 29.3332 16 29.3332C16 29.3332 25.3334 18.9998 25.3334 11.9998C25.3334 9.52448 24.35 7.15051 22.5997 5.40017C20.8493 3.64983 18.4754 2.6665 16 2.6665Z" fill="white"/>
</svg>
