<svg width="21" height="19" viewBox="0 0 21 19" fill="none" xmlns="http://www.w3.org/2000/svg">
<path fill-rule="evenodd" clip-rule="evenodd" d="M4.78801 11.02C4.83098 11.0343 4.87516 11.0447 4.92001 11.051C5.20293 11.7176 5.48427 12.385 5.76401 13.053C6.26701 14.255 6.77401 15.493 6.88501 15.849C7.02401 16.287 7.17001 16.585 7.33001 16.789C7.41301 16.893 7.50801 16.985 7.62001 17.055C7.67835 17.0915 7.74078 17.121 7.80601 17.143C8.12601 17.263 8.41801 17.213 8.60101 17.152C8.7084 17.1153 8.81058 17.0649 8.90501 17.002L8.91001 17L11.736 15.238L15.001 17.74C15.049 17.777 15.101 17.808 15.157 17.833C15.549 18.003 15.929 18.063 16.287 18.015C16.643 17.965 16.926 17.816 17.137 17.647C17.3793 17.4517 17.5725 17.2024 17.701 16.919L17.71 16.897L17.713 16.889L17.715 16.885V16.883L17.716 16.882C17.7334 16.839 17.7468 16.7945 17.756 16.749L20.736 1.72399C20.7454 1.67589 20.7501 1.62699 20.75 1.57799C20.75 1.13799 20.584 0.718986 20.195 0.465986C19.861 0.248986 19.49 0.238986 19.255 0.256986C19.003 0.276986 18.769 0.338986 18.612 0.388986C18.5241 0.416841 18.4374 0.448199 18.352 0.482986L18.341 0.487986L1.62701 7.04399L1.62501 7.04499C1.56846 7.06579 1.51275 7.0888 1.45801 7.11399C1.32547 7.17357 1.19833 7.2445 1.07801 7.32599C0.851009 7.48099 0.328009 7.90699 0.417009 8.61099C0.487009 9.17099 0.871009 9.51599 1.10601 9.68199C1.23401 9.77299 1.35601 9.83799 1.44601 9.88099C1.48601 9.90099 1.57201 9.93499 1.60901 9.95099L1.61901 9.95399L4.78801 11.02ZM18.926 1.86799H18.924C18.9154 1.87181 18.9067 1.87548 18.898 1.87899L2.16401 8.44399C2.1554 8.44747 2.14673 8.4508 2.13801 8.45399L2.12801 8.45699C2.09744 8.469 2.06741 8.48235 2.03801 8.49699C2.06584 8.51293 2.09456 8.52728 2.12401 8.53999L5.26601 9.59799C5.32216 9.61691 5.37586 9.64242 5.42601 9.67399L15.803 3.59899L15.813 3.59399C15.8533 3.56949 15.8947 3.5468 15.937 3.52599C16.009 3.48899 16.124 3.43499 16.254 3.39499C16.344 3.36699 16.611 3.28799 16.899 3.38099C17.0518 3.42914 17.1879 3.51927 17.2919 3.64111C17.3959 3.76294 17.4635 3.91156 17.487 4.06999C17.5243 4.20874 17.5253 4.35472 17.49 4.49399C17.42 4.76899 17.228 4.98299 17.053 5.14699C16.903 5.28699 14.957 7.16299 13.038 9.01499L10.425 11.535L9.96001 11.985L15.832 16.487C15.9113 16.5203 15.9973 16.534 16.083 16.527C16.1262 16.5211 16.1667 16.5031 16.2 16.475C16.2406 16.4408 16.2753 16.4002 16.303 16.355L16.305 16.354L19.195 1.78099C19.104 1.80288 19.0147 1.83163 18.928 1.86699L18.926 1.86799ZM10.465 14.262L9.29301 13.364L9.00901 15.169L10.465 14.262ZM8.21801 11.582L9.38301 10.457L11.996 7.93499L12.969 6.99699L6.44901 10.814L6.48401 10.896C6.89521 11.8674 7.30189 12.8408 7.70401 13.816L7.98701 12.016C8.01262 11.849 8.09405 11.6967 8.21801 11.582Z" fill="white"/>
</svg>
